<?xml version="1.0" encoding="UTF-8"?>
<!DOCTYPE svg PUBLIC "-//W3C//DTD SVG 1.1//EN" "http://www.w3.org/Graphics/SVG/1.1/DTD/svg11.dtd">
<!-- Creator: CorelDRAW 2021 (64-Bit) -->
<svg xmlns="http://www.w3.org/2000/svg" xml:space="preserve" width="20.0931mm" height="19.2088mm" version="1.1" style="shape-rendering:geometricPrecision; text-rendering:geometricPrecision; image-rendering:optimizeQuality; fill-rule:evenodd; clip-rule:evenodd"
viewBox="0 0 3.83 3.66"
 xmlns:xlink="http://www.w3.org/1999/xlink"
 xmlns:xodm="http://www.corel.com/coreldraw/odm/2003">
 <defs>
  <style type="text/css">
   <![CDATA[
    .fil0 {fill:#FEFEFE}
   ]]>
  </style>
 </defs>
 <g id="Слой_x0020_1">
  <metadata id="CorelCorpID_0Corel-Layer"/>
  <path class="fil0" d="M-0 1.43c0,0.07 0.03,0.11 0.09,0.16l0.84 0.74 -0.26 1.19c0,0.07 0.05,0.12 0.11,0.14 0.07,0.03 0.14,-0.02 0.18,-0.05l0.79 -0.47c0.2,-0.12 0.12,-0.12 0.32,-0l0.79 0.47c0.05,0.03 0.11,0.07 0.18,0.05 0.16,-0.04 0.11,-0.19 0.08,-0.31l-0.23 -1.02 0.84 -0.73c0.06,-0.05 0.09,-0.1 0.1,-0.14l0 -0.04c-0.01,-0.07 -0.07,-0.12 -0.16,-0.13l-1.12 -0.1c-0.04,-0.01 -0.03,-0 -0.04,-0.03l-0.46 -1.06c-0.05,-0.08 -0.21,-0.15 -0.29,0.06l-0.44 1.01c-0.02,0.03 -0,0.02 -0.04,0.02l-1.16 0.11c-0.06,0.02 -0.11,0.07 -0.11,0.14zm0.43 0.1l0.8 0.7 -0.23 1.04 0.61 -0.37 0 0c0.03,-0.02 0.05,-0.03 0.07,-0.04 0.08,-0.06 0.13,-0.08 0.23,-0.08 0.1,-0 0.14,0.03 0.23,0.08 0.02,0.01 0.04,0.03 0.07,0.04l0 -0 0.63 0.37 -0.24 -1.05 0.81 -0.7 -0.9 -0.08 -0 -0c-0.06,-0.01 -0.09,-0.02 -0.15,-0.06l-0 0c-0.06,-0.05 -0.07,-0.08 -0.09,-0.13l0 -0c-0,-0 -0,-0 0,-0l0 -0 -0.35 -0.8 -0.35 0.81 -0.01 0.02c-0.03,0.06 -0.04,0.09 -0.12,0.13 -0.05,0.03 -0.08,0.03 -0.12,0.03l0 0c0,0 0,0 0,0l-0.01 0 -0.87 0.08zm1.83 -0.28l-0 -0 -0 0 0 0zm0 -0c0,0 0,0 0,0z"/>
 </g>
</svg>
