<?xml version="1.0" encoding="UTF-8"?>
<!DOCTYPE svg PUBLIC "-//W3C//DTD SVG 1.1//EN" "http://www.w3.org/Graphics/SVG/1.1/DTD/svg11.dtd">
<!-- Creator: CorelDRAW 2021 (64-Bit) -->
<svg xmlns="http://www.w3.org/2000/svg" xml:space="preserve" width="123.798mm" height="106.613mm" version="1.1" style="shape-rendering:geometricPrecision; text-rendering:geometricPrecision; image-rendering:optimizeQuality; fill-rule:evenodd; clip-rule:evenodd"
viewBox="0 0 202.12 174.06"
 xmlns:xlink="http://www.w3.org/1999/xlink"
 xmlns:xodm="http://www.corel.com/coreldraw/odm/2003">
 <defs>
  <style type="text/css">
   <![CDATA[
    .fil1 {fill:#FEFEFE}
    .fil0 {fill:#FE0000}
   ]]>
  </style>
 </defs>
 <g id="Слой_x0020_1">
  <metadata id="CorelCorpID_0Corel-Layer"/>
  <g id="_2260985497136">
   <rect class="fil0" y="-0" width="202.12" height="174.06"/>
   <g>
    <path class="fil1" d="M173.45 136.83l0 -81.29c-14.81,0 -29.34,4.64 -42.78,10.45 0,6.77 -0,13.55 0,20.32 0.01,7.7 -2.78,10.19 -8.9,11.61 0,8.28 -1.12,17.42 -1.36,25.74 -0.34,12.1 -3.28,11.81 -15.29,11.81l-0.05 26.91c0.48,-0.01 10.29,-7.51 11.68,-8.5 16.87,-11.99 36.73,-15.14 56.69,-17.05z"/>
    <path class="fil1" d="M28.68 136.83c24.24,0 49.86,10.02 68.51,25.55l0 -26.9 -7.16 0c-8.29,0 -7.98,-7.16 -8.33,-15.09 -0.32,-7.22 -1.16,-15.22 -1.16,-22.46 -6.01,-1.4 -8.91,-3.86 -8.9,-11.42 0.01,-6.84 0,-13.68 0,-20.52 -14.12,-5.55 -27.17,-10.45 -42.58,-10.45l-0.38 81.29z"/>
    <path class="fil1" d="M78.6 89.79l8.69 3.53 1.74 35.18 24.22 -0 1.78 -35.23 8.65 -3.55c0.03,-10.37 1.26,-25.19 -1.8,-32.76 -6.92,-17.07 -31.75,-20.71 -41.4,-0.15 -3.13,6.66 -1.87,23.14 -1.87,32.97z"/>
    <path class="fil1" d="M181.38 139.54c0,3.2 -5.06,2.83 -6.97,2.9 -19.67,1.6 -35.33,4.5 -52.65,15.7 -2.36,1.52 -3.86,2.83 -3.87,3.66 19.04,-4.44 34.48,-7.48 54.59,-5.51l18 2.36 -0.01 -82.99c-3.31,-0.77 -5.59,-1.81 -9.13,-1.94 0.02,0.67 0.04,1.39 0.04,1.94l0 63.87z"/>
    <path class="fil1" d="M11.63 75.44l0.01 83.25c9.37,-1.5 21.38,-3.22 30.77,-3.2 6.92,0.02 21.66,1.43 27.86,2.65 2.16,0.43 12.03,3.22 13.76,3.26 -0.15,-1.81 -9.65,-6.77 -11.28,-7.69 -10.39,-5.81 -32.78,-12.06 -43.77,-11.18 -7.04,0.56 -7.9,-0.51 -8.21,-6.57 -0.74,-14.75 -0.04,-56.85 -0.04,-62.44l-9.1 1.91z"/>
    <path class="fil1" d="M88.48 24.76c0,11.1 13.07,17.44 21.17,9.55 9.2,-8.96 1.21,-22.52 -7.04,-22.52l-2.9 0c-5.88,0 -11.23,6.71 -11.23,12.97z"/>
    <polygon class="fil1" points="159.32,138.18 159.12,138.18 "/>
   </g>
  </g>
 </g>
</svg>
