<?xml version="1.0" encoding="UTF-8"?>
<!DOCTYPE svg PUBLIC "-//W3C//DTD SVG 1.1//EN" "http://www.w3.org/Graphics/SVG/1.1/DTD/svg11.dtd">
<!-- Creator: CorelDRAW 2021 (64-Bit) -->
<svg xmlns="http://www.w3.org/2000/svg" xml:space="preserve" width="31.6496mm" height="30.2565mm" version="1.1" style="shape-rendering:geometricPrecision; text-rendering:geometricPrecision; image-rendering:optimizeQuality; fill-rule:evenodd; clip-rule:evenodd"
viewBox="0 0 9.36 8.95"
 xmlns:xlink="http://www.w3.org/1999/xlink"
 xmlns:xodm="http://www.corel.com/coreldraw/odm/2003">
 <defs>
  <style type="text/css">
   <![CDATA[
    .fil0 {fill:#FEFEFE}
   ]]>
  </style>
 </defs>
 <g id="Слой_x0020_1">
  <metadata id="CorelCorpID_0Corel-Layer"/>
  <path class="fil0" d="M-0 3.49c0,0.18 0.06,0.27 0.23,0.39l2.06 1.8 -0.64 2.91c0,0.18 0.13,0.29 0.26,0.34 0.17,0.06 0.33,-0.05 0.45,-0.12l1.93 -1.14c0.49,-0.29 0.3,-0.29 0.78,-0.01l1.93 1.14c0.13,0.08 0.26,0.18 0.45,0.13 0.39,-0.09 0.27,-0.48 0.21,-0.75l-0.57 -2.5 2.05 -1.79c0.15,-0.11 0.22,-0.23 0.24,-0.35l0 -0.1c-0.03,-0.17 -0.18,-0.3 -0.39,-0.32l-2.74 -0.25c-0.09,-0.02 -0.07,-0.01 -0.1,-0.08l-1.13 -2.6c-0.11,-0.19 -0.5,-0.36 -0.71,0.15l-1.07 2.48c-0.04,0.07 -0,0.04 -0.11,0.06l-2.84 0.27c-0.14,0.04 -0.28,0.16 -0.28,0.34z"/>
 </g>
</svg>
