<?xml version="1.0" encoding="UTF-8"?>
<!DOCTYPE svg PUBLIC "-//W3C//DTD SVG 1.1//EN" "http://www.w3.org/Graphics/SVG/1.1/DTD/svg11.dtd">
<!-- Creator: CorelDRAW 2021 (64-Bit) -->
<svg xmlns="http://www.w3.org/2000/svg" xml:space="preserve" width="20.2593mm" height="22.8526mm" version="1.1" style="shape-rendering:geometricPrecision; text-rendering:geometricPrecision; image-rendering:optimizeQuality; fill-rule:evenodd; clip-rule:evenodd"
viewBox="0 0 3.39 3.82"
 xmlns:xlink="http://www.w3.org/1999/xlink"
 xmlns:xodm="http://www.corel.com/coreldraw/odm/2003">
 <defs>
  <style type="text/css">
   <![CDATA[
    .fil0 {fill:#D9DADA}
   ]]>
  </style>
 </defs>
 <g id="Слой_x0020_1">
  <metadata id="CorelCorpID_0Corel-Layer"/>
  <path class="fil0" d="M0.85 0.93c0,0.27 0.03,0.45 0.17,0.68 0.07,0.11 0.1,0.15 0.18,0.24l0.07 0.07c0.04,0.05 0.08,0.25 -0.06,0.35 -0.03,0.02 -0.37,0.15 -0.42,0.17 -0.19,0.08 -0.42,0.19 -0.58,0.32 -0.17,0.14 -0.21,0.22 -0.21,0.43 0,0.23 0.08,0.33 0.29,0.43 0.09,0.05 0.23,0.09 0.33,0.11 0.21,0.04 0.42,0.07 0.64,0.08l0.46 0.01c0.1,0 0.18,-0.01 0.27,-0.01 0.16,0 0.36,-0.02 0.52,-0.04 0.08,-0.01 0.17,-0.02 0.24,-0.04l0.22 -0.06c0.02,-0.01 0.03,-0.01 0.05,-0.02 0.02,-0.01 0.03,-0.01 0.05,-0.02 0.15,-0.06 0.33,-0.18 0.33,-0.36 0,-0.2 0.03,-0.26 -0.08,-0.41 -0.11,-0.15 -0.34,-0.26 -0.5,-0.34 -0.15,-0.08 -0.59,-0.23 -0.61,-0.24 -0.12,-0.06 -0.11,-0.23 -0.07,-0.35 0.01,-0.03 0.06,-0.08 0.09,-0.1 0.09,-0.11 0.16,-0.21 0.22,-0.34 0.02,-0.04 0.04,-0.1 0.05,-0.14 0.07,-0.27 0.08,-0.55 -0.01,-0.81 -0.11,-0.34 -0.4,-0.55 -0.78,-0.55 -0.2,0 -0.4,0.06 -0.54,0.18 -0.01,0.01 -0.01,0.02 -0.03,0.03 -0.02,0.01 -0.01,0.01 -0.03,0.03 -0.04,0.05 -0.07,0.07 -0.12,0.16 -0.08,0.15 -0.13,0.35 -0.13,0.54z"/>
 </g>
</svg>
