<?xml version="1.0" encoding="UTF-8"?>
<!DOCTYPE svg PUBLIC "-//W3C//DTD SVG 1.1//EN" "http://www.w3.org/Graphics/SVG/1.1/DTD/svg11.dtd">
<!-- Creator: CorelDRAW 2021 (64-Bit) -->
<svg xmlns="http://www.w3.org/2000/svg" xml:space="preserve" width="17.4596mm" height="21.7455mm" version="1.1" style="shape-rendering:geometricPrecision; text-rendering:geometricPrecision; image-rendering:optimizeQuality; fill-rule:evenodd; clip-rule:evenodd"
viewBox="0 0 2.5 3.12"
 xmlns:xlink="http://www.w3.org/1999/xlink"
 xmlns:xodm="http://www.corel.com/coreldraw/odm/2003">
 <defs>
  <style type="text/css">
   <![CDATA[
    .fil0 {fill:#D9DADA}
   ]]>
  </style>
 </defs>
 <g id="Слой_x0020_1">
  <metadata id="CorelCorpID_0Corel-Layer"/>
  <path class="fil0" d="M1.09 2.24l0 0.33 0.32 0 0 -0.33c0,-0.02 -0.01,-0.04 -0.02,-0.06 -0.09,-0.16 -0.3,-0.07 -0.3,0.06zm-0.87 0.6l0 -1.35c0,-0.02 0.03,-0.05 0.05,-0.05l1.95 0c0.03,0 0.06,0.03 0.06,0.05l0 1.35c0,0.03 -0.03,0.06 -0.06,0.06l-1.94 0c-0.03,0 -0.06,-0.03 -0.06,-0.06zm2.01 0.28l-1.97 0c-0.07,0 -0.14,-0.04 -0.18,-0.08 -0.04,-0.04 -0.08,-0.1 -0.08,-0.17l0 -1.38c0,-0.13 0.13,-0.25 0.25,-0.25l0.12 0 0 -0.38c0,-0.35 0.22,-0.65 0.5,-0.77 0.05,-0.02 0.1,-0.04 0.16,-0.05 0.27,-0.07 0.57,0.02 0.77,0.22 0.08,0.08 0.12,0.14 0.17,0.24 0.04,0.07 0.08,0.21 0.08,0.33l0 0.43c0.16,0 0.28,-0.02 0.38,0.1 0.05,0.06 0.07,0.11 0.07,0.22l0 1.25c0,0.11 -0.03,0.18 -0.09,0.24l-0.01 0.01c-0.01,0.01 -0.01,0.01 -0.02,0.02 -0.01,0.01 -0.03,0.02 -0.04,0.03 -0.03,0.02 -0.08,0.03 -0.12,0.03zm-1.43 -2.25c0,-0.23 0.15,-0.41 0.39,-0.43 0.22,-0.02 0.42,0.18 0.42,0.4l0 0.38 -0.82 0 0 -0.35z"/>
 </g>
</svg>
